<svg xmlns="http://www.w3.org/2000/svg" xmlns:xlink="http://www.w3.org/1999/xlink" width="500" zoomAndPan="magnify" viewBox="0 0 375 374.999991" height="500" preserveAspectRatio="xMidYMid meet" version="1.0"><defs><g><g id="id1"/></g></defs><rect x="-37.5" width="450" fill="rgb(100%, 100%, 100%)" y="-37.499999" height="449.999989" fill-opacity="1"/><rect x="-37.5" width="450" fill="rgb(9.01947%, 14.898682%, 23.139954%)" y="-37.499999" height="449.999989" fill-opacity="1"/><rect x="-37.5" width="450" fill="rgb(100%, 100%, 100%)" y="-37.499999" height="449.999989" fill-opacity="1"/><rect x="-37.5" width="450" fill="rgb(9.01947%, 14.898682%, 23.139954%)" y="-37.499999" height="449.999989" fill-opacity="1"/><g fill="rgb(36.079407%, 88.238525%, 90.19928%)" fill-opacity="0.4"><g transform="translate(115.522029, 283.648602)"><g><path d="M 78.078125 3.921875 C 63.835938 3.921875 49.960938 2.328125 36.453125 -0.859375 C 22.953125 -4.046875 11.863281 -8.34375 3.1875 -13.75 L 21.859375 -55.984375 C 30.035156 -51.234375 39.195312 -47.425781 49.34375 -44.5625 C 59.5 -41.695312 69.238281 -40.265625 78.5625 -40.265625 C 86.582031 -40.265625 92.3125 -41.039062 95.75 -42.59375 C 99.1875 -44.15625 100.90625 -46.488281 100.90625 -49.59375 C 100.90625 -53.195312 98.65625 -55.898438 94.15625 -57.703125 C 89.65625 -59.503906 82.25 -61.46875 71.9375 -63.59375 C 58.675781 -66.375 47.625 -69.359375 38.78125 -72.546875 C 29.945312 -75.742188 22.253906 -80.984375 15.703125 -88.265625 C 9.160156 -95.546875 5.890625 -105.410156 5.890625 -117.859375 C 5.890625 -128.660156 8.914062 -138.476562 14.96875 -147.3125 C 21.03125 -156.15625 30.078125 -163.113281 42.109375 -168.1875 C 54.140625 -173.257812 68.75 -175.796875 85.9375 -175.796875 C 97.71875 -175.796875 109.296875 -174.523438 120.671875 -171.984375 C 132.054688 -169.453125 142.082031 -165.734375 150.75 -160.828125 L 133.328125 -118.84375 C 116.460938 -127.351562 100.5 -131.609375 85.4375 -131.609375 C 70.539062 -131.609375 63.09375 -128.003906 63.09375 -120.796875 C 63.09375 -117.359375 65.300781 -114.78125 69.71875 -113.0625 C 74.144531 -111.34375 81.429688 -109.503906 91.578125 -107.546875 C 104.671875 -105.085938 115.71875 -102.257812 124.71875 -99.0625 C 133.726562 -95.875 141.546875 -90.675781 148.171875 -83.46875 C 154.804688 -76.269531 158.125 -66.453125 158.125 -54.015625 C 158.125 -43.210938 155.09375 -33.429688 149.03125 -24.671875 C 142.976562 -15.921875 133.9375 -8.96875 121.90625 -3.8125 C 109.875 1.34375 95.265625 3.921875 78.078125 3.921875 Z M 78.078125 3.921875 "/></g></g></g><g fill="rgb(36.079407%, 88.238525%, 90.19928%)" fill-opacity="1"><g transform="translate(106.841431, 274.968008)"><g><path d="M 78.078125 3.921875 C 63.835938 3.921875 49.960938 2.328125 36.453125 -0.859375 C 22.953125 -4.046875 11.863281 -8.34375 3.1875 -13.75 L 21.859375 -55.984375 C 30.035156 -51.234375 39.195312 -47.425781 49.34375 -44.5625 C 59.5 -41.695312 69.238281 -40.265625 78.5625 -40.265625 C 86.582031 -40.265625 92.3125 -41.039062 95.75 -42.59375 C 99.1875 -44.15625 100.90625 -46.488281 100.90625 -49.59375 C 100.90625 -53.195312 98.65625 -55.898438 94.15625 -57.703125 C 89.65625 -59.503906 82.25 -61.46875 71.9375 -63.59375 C 58.675781 -66.375 47.625 -69.359375 38.78125 -72.546875 C 29.945312 -75.742188 22.253906 -80.984375 15.703125 -88.265625 C 9.160156 -95.546875 5.890625 -105.410156 5.890625 -117.859375 C 5.890625 -128.660156 8.914062 -138.476562 14.96875 -147.3125 C 21.03125 -156.15625 30.078125 -163.113281 42.109375 -168.1875 C 54.140625 -173.257812 68.75 -175.796875 85.9375 -175.796875 C 97.71875 -175.796875 109.296875 -174.523438 120.671875 -171.984375 C 132.054688 -169.453125 142.082031 -165.734375 150.75 -160.828125 L 133.328125 -118.84375 C 116.460938 -127.351562 100.5 -131.609375 85.4375 -131.609375 C 70.539062 -131.609375 63.09375 -128.003906 63.09375 -120.796875 C 63.09375 -117.359375 65.300781 -114.78125 69.71875 -113.0625 C 74.144531 -111.34375 81.429688 -109.503906 91.578125 -107.546875 C 104.671875 -105.085938 115.71875 -102.257812 124.71875 -99.0625 C 133.726562 -95.875 141.546875 -90.675781 148.171875 -83.46875 C 154.804688 -76.269531 158.125 -66.453125 158.125 -54.015625 C 158.125 -43.210938 155.09375 -33.429688 149.03125 -24.671875 C 142.976562 -15.921875 133.9375 -8.96875 121.90625 -3.8125 C 109.875 1.34375 95.265625 3.921875 78.078125 3.921875 Z M 78.078125 3.921875 "/></g></g></g></svg>